<svg xmlns="http://www.w3.org/2000/svg" xmlns:xlink="http://www.w3.org/1999/xlink" width="500" zoomAndPan="magnify" viewBox="0 0 375 374.999991" height="500" preserveAspectRatio="xMidYMid meet" version="1.0"><defs><clipPath id="0fbf2ed1c9"><path d="M 25 124 L 350.359375 124 L 350.359375 352.5 L 25 352.5 Z M 25 124 " clip-rule="nonzero"/></clipPath><clipPath id="8fcb354b35"><path d="M 25 304 L 350.359375 304 L 350.359375 333 L 25 333 Z M 25 304 " clip-rule="nonzero"/></clipPath></defs><path fill="#ffffff" d="M 221.445312 152.683594 L 153.773438 152.683594 C 148.933594 152.683594 145.015625 148.761719 145.015625 143.921875 C 145.015625 139.085938 148.933594 135.160156 153.773438 135.160156 L 221.445312 135.160156 C 226.277344 135.160156 230.199219 139.085938 230.199219 143.921875 C 230.199219 148.761719 226.277344 152.683594 221.445312 152.683594 Z M 322.046875 125.519531 L 53.164062 125.519531 C 38.441406 125.519531 26.503906 137.464844 26.503906 152.195312 L 26.503906 324.261719 C 26.503906 338.988281 38.441406 350.933594 53.164062 350.933594 L 322.046875 350.933594 C 336.773438 350.933594 348.710938 338.988281 348.710938 324.261719 L 348.710938 152.195312 C 348.710938 137.464844 336.773438 125.519531 322.046875 125.519531 " fill-opacity="1" fill-rule="nonzero"/><g clip-path="url(#0fbf2ed1c9)"><path fill="#231f20" d="M 221.445312 152.683594 L 221.445312 151.191406 L 153.773438 151.191406 C 151.757812 151.1875 149.953125 150.378906 148.632812 149.058594 C 147.320312 147.742188 146.507812 145.933594 146.507812 143.921875 C 146.507812 141.910156 147.320312 140.105469 148.632812 138.785156 C 149.953125 137.46875 151.757812 136.660156 153.773438 136.65625 L 221.445312 136.65625 C 223.453125 136.660156 225.261719 137.46875 226.582031 138.785156 C 227.898438 140.105469 228.707031 141.910156 228.707031 143.921875 C 228.707031 145.933594 227.898438 147.742188 226.582031 149.058594 C 225.261719 150.378906 223.453125 151.1875 221.445312 151.191406 L 221.445312 154.175781 C 227.101562 154.171875 231.691406 149.585938 231.691406 143.921875 C 231.691406 138.257812 227.101562 133.671875 221.445312 133.667969 L 153.773438 133.667969 C 148.109375 133.671875 143.523438 138.261719 143.523438 143.921875 C 143.523438 149.585938 148.109375 154.171875 153.773438 154.175781 L 221.445312 154.175781 Z M 322.046875 125.519531 L 322.046875 124.023438 L 53.164062 124.023438 C 37.617188 124.023438 25.011719 136.636719 25.011719 152.195312 L 25.011719 324.261719 C 25.011719 339.816406 37.617188 352.425781 53.164062 352.425781 L 322.046875 352.425781 C 337.597656 352.425781 350.203125 339.816406 350.203125 324.261719 L 350.203125 152.195312 C 350.203125 136.636719 337.597656 124.023438 322.046875 124.023438 L 322.046875 127.011719 C 329.003906 127.011719 335.285156 129.828125 339.847656 134.386719 C 344.402344 138.949219 347.21875 145.238281 347.21875 152.195312 L 347.21875 324.261719 C 347.21875 331.21875 344.402344 337.5 339.847656 342.066406 C 335.285156 346.625 329.003906 349.4375 322.046875 349.4375 L 53.164062 349.4375 C 46.210938 349.4375 39.929688 346.625 35.367188 342.066406 C 30.8125 337.5 27.996094 331.21875 27.992188 324.261719 L 27.992188 152.195312 C 27.996094 145.238281 30.8125 138.949219 35.367188 134.386719 C 39.929688 129.828125 46.210938 127.011719 53.164062 127.011719 L 322.046875 127.011719 L 322.046875 125.519531 " fill-opacity="1" fill-rule="nonzero"/></g><path fill="#ffffff" d="M 316.78125 129.929688 L 58.429688 129.929688 C 44.285156 129.929688 32.808594 141.40625 32.808594 155.5625 L 32.808594 320.890625 C 32.808594 335.042969 44.285156 346.519531 58.429688 346.519531 L 316.78125 346.519531 C 330.929688 346.519531 342.40625 335.042969 342.40625 320.890625 L 342.40625 155.5625 C 342.40625 141.40625 330.929688 129.929688 316.78125 129.929688 Z M 316.78125 130.828125 C 330.414062 130.828125 341.507812 141.921875 341.507812 155.5625 L 341.507812 320.890625 C 341.507812 334.527344 330.414062 345.621094 316.78125 345.621094 L 58.429688 345.621094 C 44.796875 345.621094 33.710938 334.527344 33.710938 320.890625 L 33.710938 155.5625 C 33.710938 141.921875 44.796875 130.828125 58.429688 130.828125 L 316.78125 130.828125 " fill-opacity="1" fill-rule="nonzero"/><path fill="#231f20" d="M 316.78125 129.929688 L 316.78125 128.4375 L 58.429688 128.4375 C 43.457031 128.4375 31.320312 140.582031 31.316406 155.5625 L 31.316406 320.890625 C 31.320312 335.871094 43.457031 348.011719 58.429688 348.011719 L 316.78125 348.011719 C 331.753906 348.011719 343.898438 335.871094 343.898438 320.890625 L 343.898438 155.5625 C 343.898438 140.582031 331.753906 128.4375 316.78125 128.4375 L 316.78125 131.425781 C 323.449219 131.425781 329.472656 134.125 333.847656 138.492188 C 338.214844 142.867188 340.914062 148.890625 340.914062 155.5625 L 340.914062 320.890625 C 340.914062 327.558594 338.214844 333.585938 333.847656 337.957031 C 329.472656 342.328125 323.449219 345.023438 316.78125 345.023438 L 58.429688 345.023438 C 51.761719 345.023438 45.742188 342.328125 41.371094 337.957031 C 37.003906 333.585938 34.304688 327.5625 34.300781 320.890625 L 34.300781 155.5625 C 34.304688 148.890625 37.003906 142.867188 41.371094 138.492188 C 45.742188 134.125 51.761719 131.425781 58.429688 131.425781 L 316.78125 131.425781 Z M 316.78125 132.324219 C 323.191406 132.324219 328.992188 134.929688 333.203125 139.136719 C 337.410156 143.351562 340.015625 149.152344 340.015625 155.5625 L 340.015625 320.890625 C 340.015625 327.300781 337.410156 333.097656 333.203125 337.3125 C 328.992188 341.527344 323.191406 344.128906 316.78125 344.128906 L 58.429688 344.128906 C 52.023438 344.128906 46.222656 341.527344 42.011719 337.3125 C 37.804688 333.097656 35.203125 327.300781 35.199219 320.890625 L 35.199219 155.5625 C 35.203125 149.152344 37.804688 143.351562 42.011719 139.136719 C 46.222656 134.929688 52.023438 132.324219 58.429688 132.324219 L 316.78125 132.324219 L 316.78125 129.335938 L 58.429688 129.335938 C 43.972656 129.339844 32.21875 141.097656 32.21875 155.5625 L 32.21875 320.890625 C 32.21875 335.355469 43.972656 347.109375 58.429688 347.113281 L 316.78125 347.113281 C 331.242188 347.109375 342.996094 335.355469 343 320.890625 L 343 155.5625 C 342.996094 141.09375 331.242188 129.339844 316.78125 129.335938 L 316.78125 132.324219 " fill-opacity="1" fill-rule="nonzero"/><path fill="#ffffff" d="M 185.464844 104.847656 C 179.792969 104.847656 175.195312 100.246094 175.195312 94.570312 C 175.195312 88.890625 179.792969 84.289062 185.464844 84.289062 C 191.140625 84.289062 195.738281 88.890625 195.738281 94.570312 C 195.738281 100.246094 191.140625 104.847656 185.464844 104.847656 Z M 185.464844 79.125 C 176.9375 79.125 170.027344 86.039062 170.027344 94.570312 L 170.027344 137.054688 C 170.027344 139.53125 172.039062 141.542969 174.515625 141.542969 L 196.417969 141.542969 C 198.894531 141.542969 200.898438 139.535156 200.898438 137.054688 L 200.898438 94.570312 C 200.898438 86.039062 193.992188 79.125 185.464844 79.125 " fill-opacity="1" fill-rule="nonzero"/><path fill="#231f20" d="M 185.464844 104.847656 L 185.464844 103.351562 C 183.035156 103.351562 180.851562 102.371094 179.257812 100.777344 C 177.667969 99.183594 176.6875 97 176.6875 94.570312 C 176.6875 92.136719 177.667969 89.953125 179.257812 88.359375 C 180.851562 86.769531 183.035156 85.785156 185.464844 85.785156 C 187.894531 85.785156 190.082031 86.769531 191.675781 88.359375 C 193.265625 89.953125 194.246094 92.136719 194.246094 94.570312 C 194.246094 97 193.265625 99.183594 191.675781 100.777344 C 190.082031 102.371094 187.894531 103.351562 185.464844 103.351562 L 185.464844 106.339844 C 191.964844 106.339844 197.230469 101.070312 197.230469 94.570312 C 197.230469 88.066406 191.964844 82.796875 185.464844 82.796875 C 178.964844 82.796875 173.703125 88.066406 173.703125 94.570312 C 173.703125 101.070312 178.964844 106.339844 185.464844 106.339844 Z M 185.464844 79.125 L 185.464844 77.632812 C 176.113281 77.632812 168.535156 85.210938 168.535156 94.570312 L 168.535156 137.054688 C 168.539062 140.359375 171.210938 143.03125 174.515625 143.035156 L 196.417969 143.035156 C 199.722656 143.03125 202.390625 140.359375 202.390625 137.054688 L 202.390625 94.570312 C 202.390625 85.210938 194.816406 77.632812 185.464844 77.632812 L 185.464844 80.621094 C 189.320312 80.621094 192.792969 82.179688 195.324219 84.703125 C 197.847656 87.234375 199.40625 90.710938 199.40625 94.570312 L 199.40625 137.054688 C 199.402344 138.707031 198.070312 140.046875 196.417969 140.050781 L 174.515625 140.050781 C 172.863281 140.046875 171.523438 138.707031 171.519531 137.054688 L 171.519531 94.570312 C 171.519531 90.710938 173.078125 87.234375 175.605469 84.703125 C 178.132812 82.179688 181.613281 80.621094 185.464844 80.621094 L 185.464844 79.125 " fill-opacity="1" fill-rule="nonzero"/><path fill="#ffffff" d="M 177.625 89.710938 C 174.875 90.03125 169.28125 86.164062 171.832031 80.855469 C 174.382812 75.550781 179.464844 65.734375 179.464844 59.441406 L 193.234375 59.441406 C 193.234375 59.441406 196.695312 76.464844 198.773438 80.710938 C 200.898438 85.050781 197.507812 90.394531 193.984375 89.6875 C 188.953125 88.675781 181.476562 89.261719 177.625 89.710938 " fill-opacity="1" fill-rule="nonzero"/><path fill="#231f20" d="M 177.625 89.710938 L 177.453125 88.226562 L 177.289062 88.234375 C 176.980469 88.238281 176.480469 88.136719 175.949219 87.90625 C 175.148438 87.566406 174.28125 86.945312 173.667969 86.179688 C 173.042969 85.40625 172.675781 84.527344 172.671875 83.535156 C 172.675781 82.933594 172.808594 82.269531 173.175781 81.507812 L 173.175781 81.503906 C 174.441406 78.871094 176.367188 75.054688 177.988281 71.082031 C 178.796875 69.09375 179.53125 67.058594 180.070312 65.09375 C 180.609375 63.121094 180.953125 61.214844 180.953125 59.441406 L 179.464844 59.441406 L 179.464844 60.9375 L 193.234375 60.9375 L 193.234375 59.441406 L 191.773438 59.742188 C 191.773438 59.75 192.640625 64.015625 193.769531 68.824219 C 194.335938 71.234375 194.96875 73.773438 195.59375 76 C 195.90625 77.113281 196.21875 78.148438 196.523438 79.054688 C 196.828125 79.957031 197.125 80.734375 197.433594 81.367188 C 197.78125 82.082031 197.9375 82.832031 197.9375 83.578125 C 197.945312 84.835938 197.480469 86.085938 196.792969 86.953125 C 196.457031 87.394531 196.070312 87.726562 195.695312 87.945312 C 195.316406 88.160156 194.957031 88.257812 194.621094 88.257812 C 194.503906 88.257812 194.390625 88.246094 194.28125 88.226562 C 192.074219 87.78125 189.550781 87.640625 187.039062 87.636719 C 183.382812 87.640625 179.777344 87.953125 177.453125 88.226562 L 177.625 89.710938 L 177.792969 91.191406 C 180.039062 90.933594 183.554688 90.621094 187.039062 90.621094 C 189.425781 90.621094 191.800781 90.769531 193.6875 91.148438 C 194 91.214844 194.3125 91.242188 194.621094 91.242188 C 195.542969 91.242188 196.417969 90.972656 197.179688 90.535156 C 198.324219 89.875 199.234375 88.859375 199.890625 87.660156 C 200.539062 86.457031 200.921875 85.054688 200.921875 83.578125 C 200.925781 82.417969 200.679688 81.203125 200.113281 80.050781 C 199.902344 79.621094 199.632812 78.933594 199.351562 78.101562 C 198.359375 75.15625 197.183594 70.386719 196.269531 66.386719 C 195.8125 64.390625 195.417969 62.578125 195.140625 61.265625 C 195 60.609375 194.890625 60.082031 194.8125 59.714844 C 194.738281 59.34375 194.695312 59.148438 194.695312 59.148438 C 194.554688 58.453125 193.941406 57.949219 193.234375 57.949219 L 179.464844 57.949219 C 179.070312 57.949219 178.6875 58.109375 178.410156 58.390625 C 178.128906 58.664062 177.972656 59.054688 177.972656 59.441406 C 177.972656 60.816406 177.6875 62.5 177.191406 64.304688 C 176.449219 67.015625 175.257812 70.003906 174.003906 72.800781 C 172.753906 75.597656 171.449219 78.203125 170.488281 80.210938 L 170.488281 80.207031 C 169.941406 81.335938 169.6875 82.46875 169.6875 83.535156 C 169.6875 84.71875 169.992188 85.8125 170.488281 86.75 C 171.226562 88.164062 172.34375 89.25 173.546875 90.003906 C 174.75 90.757812 176.027344 91.207031 177.289062 91.21875 C 177.457031 91.21875 177.625 91.210938 177.792969 91.191406 L 177.625 89.710938 " fill-opacity="1" fill-rule="nonzero"/><path fill="#ffffff" d="M 172.519531 1.46875 C 175.195312 9.066406 179.464844 30.351562 179.464844 36.117188 L 193.234375 36.117188 C 193.234375 36.117188 196.152344 9.152344 198.242188 1.46875 L 172.519531 1.46875 " fill-opacity="1" fill-rule="nonzero"/><path fill="#231f20" d="M 172.519531 1.46875 L 171.109375 1.964844 C 171.75 3.777344 172.515625 6.507812 173.28125 9.632812 C 174.441406 14.328125 175.617188 19.929688 176.503906 24.882812 C 176.945312 27.363281 177.316406 29.675781 177.574219 31.625 C 177.828125 33.566406 177.972656 35.167969 177.972656 36.117188 C 177.972656 36.511719 178.128906 36.894531 178.410156 37.171875 C 178.6875 37.453125 179.070312 37.613281 179.464844 37.613281 L 193.234375 37.613281 C 193.996094 37.613281 194.636719 37.035156 194.71875 36.277344 C 194.71875 36.273438 194.761719 35.859375 194.847656 35.109375 C 195.140625 32.484375 195.902344 25.800781 196.816406 18.949219 C 197.273438 15.523438 197.769531 12.054688 198.265625 9.035156 C 198.753906 6.015625 199.25 3.433594 199.679688 1.859375 C 199.800781 1.414062 199.707031 0.925781 199.425781 0.5625 C 199.140625 0.191406 198.703125 -0.0273438 198.242188 -0.0273438 L 172.519531 -0.0273438 C 172.035156 -0.0273438 171.578125 0.210938 171.300781 0.605469 C 171.019531 1 170.949219 1.507812 171.109375 1.964844 L 172.519531 1.46875 L 172.519531 2.960938 L 198.242188 2.960938 L 198.242188 1.46875 L 196.796875 1.074219 C 196.246094 3.117188 195.675781 6.253906 195.105469 9.890625 C 193.394531 20.773438 191.753906 35.945312 191.75 35.957031 L 193.234375 36.117188 L 193.234375 34.625 L 179.464844 34.625 L 179.464844 36.117188 L 180.953125 36.117188 C 180.953125 34.507812 180.679688 32.082031 180.230469 29.117188 C 179.558594 24.683594 178.496094 19.117188 177.347656 13.925781 C 176.195312 8.730469 174.96875 3.941406 173.925781 0.96875 L 172.519531 1.46875 L 172.519531 2.960938 L 172.519531 1.46875 " fill-opacity="1" fill-rule="nonzero"/><path fill="#ffffff" d="M 193.984375 58.074219 C 193.984375 59.148438 193.113281 60.023438 192.035156 60.023438 L 180.730469 60.023438 C 179.652344 60.023438 178.777344 59.148438 178.777344 58.074219 L 178.777344 35.484375 C 178.777344 34.40625 179.652344 33.535156 180.730469 33.535156 L 192.035156 33.535156 C 193.113281 33.535156 193.984375 34.40625 193.984375 35.484375 L 193.984375 58.074219 " fill-opacity="1" fill-rule="nonzero"/><path fill="#231f20" d="M 193.984375 58.074219 L 192.492188 58.074219 C 192.492188 58.324219 192.289062 58.523438 192.035156 58.527344 L 180.730469 58.527344 C 180.472656 58.523438 180.269531 58.324219 180.269531 58.074219 L 180.269531 35.484375 C 180.269531 35.234375 180.476562 35.03125 180.730469 35.03125 L 192.035156 35.03125 C 192.285156 35.03125 192.492188 35.234375 192.492188 35.484375 L 192.492188 58.074219 L 195.476562 58.074219 L 195.476562 35.484375 C 195.476562 33.582031 193.9375 32.042969 192.035156 32.042969 L 180.730469 32.042969 C 178.824219 32.042969 177.285156 33.582031 177.285156 35.484375 L 177.285156 58.074219 C 177.285156 59.972656 178.824219 61.511719 180.730469 61.515625 L 192.035156 61.515625 C 193.933594 61.511719 195.476562 59.976562 195.476562 58.074219 L 193.984375 58.074219 " fill-opacity="1" fill-rule="nonzero"/><path fill="#ffffff" d="M 170.027344 135.160156 L 163.210938 135.160156 L 163.210938 125.519531 L 170.027344 125.519531 L 170.027344 135.160156 " fill-opacity="1" fill-rule="nonzero"/><path fill="#231f20" d="M 170.027344 135.160156 L 170.027344 133.667969 L 164.703125 133.667969 L 164.703125 127.011719 L 168.535156 127.011719 L 168.535156 135.160156 L 170.027344 135.160156 L 170.027344 133.667969 L 170.027344 135.160156 L 171.519531 135.160156 L 171.519531 125.519531 C 171.519531 125.117188 171.363281 124.742188 171.085938 124.464844 C 170.800781 124.179688 170.429688 124.023438 170.027344 124.023438 L 163.210938 124.023438 C 162.816406 124.023438 162.433594 124.183594 162.15625 124.464844 C 161.875 124.738281 161.71875 125.125 161.71875 125.519531 L 161.71875 135.160156 C 161.71875 135.554688 161.875 135.9375 162.15625 136.21875 C 162.433594 136.496094 162.816406 136.65625 163.210938 136.65625 L 170.027344 136.65625 C 170.429688 136.65625 170.800781 136.5 171.085938 136.21875 C 171.363281 135.933594 171.519531 135.5625 171.519531 135.160156 L 170.027344 135.160156 " fill-opacity="1" fill-rule="nonzero"/><path fill="#ffffff" d="M 200.902344 135.160156 L 207.722656 135.160156 L 207.722656 125.519531 L 200.902344 125.519531 L 200.902344 135.160156 " fill-opacity="1" fill-rule="nonzero"/><path fill="#231f20" d="M 200.902344 135.160156 L 200.902344 136.65625 L 207.722656 136.65625 C 208.117188 136.65625 208.496094 136.5 208.773438 136.21875 C 209.054688 135.933594 209.210938 135.5625 209.210938 135.160156 L 209.210938 125.519531 C 209.210938 125.117188 209.054688 124.742188 208.773438 124.464844 C 208.496094 124.179688 208.117188 124.023438 207.722656 124.023438 L 200.902344 124.023438 C 200.511719 124.023438 200.125 124.183594 199.847656 124.464844 C 199.570312 124.738281 199.410156 125.125 199.410156 125.519531 L 199.410156 135.160156 C 199.410156 135.554688 199.570312 135.9375 199.847656 136.21875 C 200.125 136.496094 200.511719 136.65625 200.902344 136.65625 L 200.902344 135.160156 L 202.394531 135.160156 L 202.394531 127.011719 L 206.226562 127.011719 L 206.226562 133.667969 L 200.902344 133.667969 L 200.902344 135.160156 L 202.394531 135.160156 L 200.902344 135.160156 " fill-opacity="1" fill-rule="nonzero"/><path fill="#ffffff" d="M 348.710938 331.019531 L 26.503906 331.019531 L 26.503906 305.652344 L 348.710938 305.652344 L 348.710938 331.019531 " fill-opacity="1" fill-rule="nonzero"/><g clip-path="url(#8fcb354b35)"><path fill="#231f20" d="M 348.710938 331.019531 L 348.710938 329.523438 L 27.992188 329.523438 L 27.992188 307.144531 L 347.21875 307.144531 L 347.21875 331.019531 L 348.710938 331.019531 L 348.710938 329.523438 L 348.710938 331.019531 L 350.203125 331.019531 L 350.203125 305.652344 C 350.203125 305.253906 350.050781 304.878906 349.769531 304.597656 C 349.484375 304.316406 349.113281 304.160156 348.710938 304.160156 L 26.503906 304.160156 C 26.105469 304.160156 25.722656 304.320312 25.445312 304.597656 C 25.167969 304.875 25.011719 305.261719 25.011719 305.652344 L 25.011719 331.019531 C 25.011719 331.410156 25.167969 331.796875 25.445312 332.078125 C 25.722656 332.351562 26.105469 332.511719 26.503906 332.511719 L 348.710938 332.511719 C 349.113281 332.511719 349.484375 332.355469 349.769531 332.078125 C 350.050781 331.792969 350.203125 331.417969 350.203125 331.019531 L 348.710938 331.019531 " fill-opacity="1" fill-rule="nonzero"/></g></svg>